{"title":"Wel The Rileys 2010 720p BRRip x264 Feel-Free","uid":6092656,"size":2154805638,"categoryP":"video","categoryS":"hd___movies","magnet":"?xt=urn:btih:f7d5ba1462410adfb7e324c996ee5dcac533dff4&amp;dn=Wel+The+Rileys+2010+720p+BRRip+x264+Feel-Free&amp;tr=udp%3A%2F%2Ftracker.openbittorrent.com%3A80&amp;tr=udp%3A%2F%2Fopen.demonii.com%3A1337&amp;tr=udp%3A%2F%2Ftracker.coppersurfer.tk%3A6969&amp;tr=udp%3A%2F%2Fexodus.desync.com%3A6969","seeders":0,"leechers":0,"uploader":".BONE.","files":9,"time":1294627845,"description":"Genre:Drama\nLanguage:English\nIMDb:\n &lt;a href=&quot;\nhttp://www.imdb.com/title/tt1183923/&quot; rel=&quot;nofollow&quot; target=&quot;_NEW&quot;&gt;\nhttp://www.imdb.com/title/tt1183923/&lt;/a&gt;\n\nSource:BluRay x264-AVS720\n\n\nFormat : Matroska\nFile size : 2.00 GiB\nDuration : 1h 50mn\nOverall bit rate : 2 584 Kbps\n\n\nVideo\nFormat settings, CABAC : Yes\nFormat settings, ReFrames : 4 frames\nFormat settings, GOP : M=4, N=16\nCodec ID : V_MPEG4/ISO/AVC\nDuration : 1h 50mn\nBit rate : 2 200 Kbps\nWidth : 1 280 pixels\nHeight : 688 pixels\nDisplay aspect ratio : 1.860\nFrame rate mode : Variable\nFrame rate : 23.976 fps\nColor space : YUV\nChroma subsampling : 4:2:0\nBit depth : 8 bits\nScan type : Progressive\nBits/(Pixel*Frame) : 0.104\nStream size : 1.66 GiB (83%)\nWriting library : x264\n\n\nAudio\nID : 2\nFormat : AC-3\nFormat/Info : Audio Coding 3\nMode extension : CM (complete main)\nCodec ID : A_AC3\nDuration : 1h 50mn\nBit rate mode : Constant\nBit rate : 384 Kbps\nChannel(s) : 6 channels\nChannel positions : Front: L C R, Side: L R, LFE\nSampling rate : 48.0 KHz\nBit depth : 16 bits\nVideo delay : -1mn 5s\nStream size : 304 MiB (15%)\nLanguage : English\n\n\nPlot:\nOn a business trip to New Orleans, a damaged man seeks salvation by caring for a wayward young woman\n\nTRAILER:\n &lt;a href=&quot;\nhttp://www.imdb.com/video/imdb/vi2107311641/&quot; rel=&quot;nofollow&quot; target=&quot;_NEW&quot;&gt;\nhttp://www.imdb.com/video/imdb/vi2107311641/&lt;/a&gt;\n &lt;a href=&quot;\nhttp://shareimage.org/images/er2k1j6yv413ivjvzdl.png&quot; rel=&quot;nofollow&quot; target=&quot;_NEW&quot;&gt;\nhttp://shareimage.org/images/er2k1j6yv413ivjvzdl.png&lt;/a&gt;\n &lt;a href=&quot;\nhttp://shareimage.org/images/qs58qelslpwu9g7a9avy.png&quot; rel=&quot;nofollow&quot; target=&quot;_NEW&quot;&gt;\nhttp://shareimage.org/images/qs58qelslpwu9g7a9avy.png&lt;/a&gt;\n &lt;a href=&quot;\nhttp://shareimage.org/images/ij6al779op7lb2k15.png&quot; rel=&quot;nofollow&quot; target=&quot;_NEW&quot;&gt;\nhttp://shareimage.org/images/ij6al779op7lb2k15.png&lt;/a&gt;\n &lt;a href=&quot;\nhttp://shareimage.org/images/n5uxbgdjizpc0n4avpzl.png&quot; rel=&quot;nofollow&quot; target=&quot;_NEW&quot;&gt;\nhttp://shareimage.org/images/n5uxbgdjizpc0n4avpzl.png&lt;/a&gt;\n &lt;a href=&quot;\nhttp://shareimage.org/images/qbvk415fq1la33b24hy.png&quot; rel=&quot;nofollow&quot; target=&quot;_NEW&quot;&gt;\nhttp://shareimage.org/images/qbvk415fq1la33b24hy.png&lt;/a&gt;\n","torrent":{"xt":"urn:btih:f7d5ba1462410adfb7e324c996ee5dcac533dff4","amp;dn":"Wel+The+Rileys+2010+720p+BRRip+x264+Feel-Free","amp;tr":["udp%3A%2F%2Ftracker.openbittorrent.com%3A80","udp%3A%2F%2Fopen.demonii.com%3A1337","udp%3A%2F%2Ftracker.coppersurfer.tk%3A6969","udp%3A%2F%2Fexodus.desync.com%3A6969"],"infoHash":"f7d5ba1462410adfb7e324c996ee5dcac533dff4","infoHashBuffer":{"type":"Buffer","data":[247,213,186,20,98,65,10,223,183,227,36,201,150,238,93,202,197,51,223,244]},"announce":[],"urlList":[]}}